<svg width="28" height="28" viewBox="0 0 28 28" fill="none" xmlns="http://www.w3.org/2000/svg">
<path fill-rule="evenodd" clip-rule="evenodd" d="M4.375 21C4.375 20.7679 4.46719 20.5454 4.63128 20.3813C4.79538 20.2172 5.01794 20.125 5.25 20.125H22.75C22.9821 20.125 23.2046 20.2172 23.3687 20.3813C23.5328 20.5454 23.625 20.7679 23.625 21C23.625 21.2321 23.5328 21.4546 23.3687 21.6187C23.2046 21.7828 22.9821 21.875 22.75 21.875H5.25C5.01794 21.875 4.79538 21.7828 4.63128 21.6187C4.46719 21.4546 4.375 21.2321 4.375 21ZM4.375 14C4.375 13.7679 4.46719 13.5454 4.63128 13.3813C4.79538 13.2172 5.01794 13.125 5.25 13.125H22.75C22.9821 13.125 23.2046 13.2172 23.3687 13.3813C23.5328 13.5454 23.625 13.7679 23.625 14C23.625 14.2321 23.5328 14.4546 23.3687 14.6187C23.2046 14.7828 22.9821 14.875 22.75 14.875H5.25C5.01794 14.875 4.79538 14.7828 4.63128 14.6187C4.46719 14.4546 4.375 14.2321 4.375 14ZM4.375 7C4.375 6.76794 4.46719 6.54538 4.63128 6.38128C4.79538 6.21719 5.01794 6.125 5.25 6.125H22.75C22.9821 6.125 23.2046 6.21719 23.3687 6.38128C23.5328 6.54538 23.625 6.76794 23.625 7C23.625 7.23206 23.5328 7.45462 23.3687 7.61872C23.2046 7.78281 22.9821 7.875 22.75 7.875H5.25C5.01794 7.875 4.79538 7.78281 4.63128 7.61872C4.46719 7.45462 4.375 7.23206 4.375 7Z" fill="white"/>
</svg>
